<svg xmlns="http://www.w3.org/2000/svg" viewBox="0 0 128 128" width="128" height="128" role="img" aria-labelledby="p03-title">
  <title id="p03-title">麦麦 · 戴小三角围巾的奶油柴犬</title>
  <defs>
    <linearGradient id="p03-fur" x1="44" y1="31" x2="82" y2="106" gradientUnits="userSpaceOnUse"><stop stop-color="#e8c87e"/><stop offset="1" stop-color="#d5af60"/></linearGradient>
    <linearGradient id="p03-cream" x1="61" y1="56" x2="64" y2="107" gradientUnits="userSpaceOnUse"><stop stop-color="#fff7df"/><stop offset="1" stop-color="#eee1b9"/></linearGradient>
    <linearGradient id="p03-scarf" x1="50" y1="77" x2="74" y2="98" gradientUnits="userSpaceOnUse"><stop stop-color="#89a18a"/><stop offset="1" stop-color="#5d816d"/></linearGradient>
    <radialGradient id="p03-shadow"><stop stop-color="#716443" stop-opacity=".18"/><stop offset="1" stop-color="#716443" stop-opacity="0"/></radialGradient>
  </defs>
  <ellipse cx="64" cy="113" rx="39" ry="4.5" fill="url(#p03-shadow)"/>
  <g class="pet-body" stroke-linecap="round" stroke-linejoin="round">
    <path d="M38 104c-12 0-22-11-20-23 2-11 13-13 19-7 5 5 2 12-3 12-4 0-6-4-4-6-6 2-3 11 6 12" fill="#d4ac59" stroke="#ae8b48" stroke-width="1.8"/>
    <path d="M21 82c0-5 4-8 8-8" fill="none" stroke="#f3d896" stroke-width="2.5"/>
    <path d="M44 73c-8 8-11 21-11 29 0 8 13 11 31 11s31-4 31-11c0-10-4-22-13-30Z" fill="url(#p03-fur)" stroke="#b29250" stroke-width="1.8"/>
    <path d="M53 79c-7 6-9 17-7 27 8 6 27 6 35-1 2-10-3-20-10-26Z" fill="url(#p03-cream)"/>
    <path d="M40 94c-8-1-12 5-11 11 1 5 10 6 15 3l4-7" fill="url(#p03-fur)" stroke="#b29250" stroke-width="1.6"/>
    <path d="M85 94c8-1 15 5 14 11-1 5-9 6-16 3l-4-7" fill="url(#p03-fur)" stroke="#b29250" stroke-width="1.6"/>
    <path d="M48 91l-3 14c-2 5 0 8 6 8 8 0 10-2 10-6V95M70 94v13c0 5 3 6 10 6 6 0 8-3 5-8l-4-14" fill="url(#p03-cream)" stroke="#bba373" stroke-width="1.6"/>
    <path d="M50 107v3M55 107v3M75 107v3M80 107v3" stroke="#c8b68c" stroke-width="1.2"/>
    <path d="M32 48c-4-10-6-28-1-31 3-1 16 13 20 20 8-3 18-3 26-1 5-8 15-20 19-19 5 2 2 22-1 32 5 5 8 14 5 21-4 11-21 18-36 18-16 0-33-7-37-18-3-8 0-17 5-22Z" fill="url(#p03-fur)" stroke="#b29250" stroke-width="1.8"/>
    <path d="M34 27l10 13-11 4Z" fill="#b98e64"/>
    <path d="M93 27L82 40l12 4Z" fill="#b98e64"/>
    <path d="M35 29l7 11M91 29l-7 11" fill="none" stroke="#e4c999" stroke-width="1.5"/>
    <path d="M29 64c7-4 11 3 16 3 7-1 7-9 19-9 13 0 14 8 20 9 6 0 9-7 16-3 1 13-15 24-36 24S26 77 29 64Z" fill="url(#p03-cream)"/>
    <path d="M42 48c2-3 6-4 9-2M77 46c3-2 7-1 9 2" fill="none" stroke="#fff0c9" stroke-width="4.5"/>
    <g class="pet-eyes" fill="#514632">
      <ellipse cx="47" cy="56" rx="2.8" ry="3.5"/>
      <ellipse cx="82" cy="56" rx="2.8" ry="3.5"/>
      <circle cx="47.7" cy="54.9" r=".8" fill="#fff9e6"/>
      <circle cx="82.7" cy="54.9" r=".8" fill="#fff9e6"/>
    </g>
    <ellipse cx="37" cy="65" rx="4.5" ry="2.6" fill="#dab285" opacity=".6"/>
    <ellipse cx="91" cy="65" rx="4.5" ry="2.6" fill="#dab285" opacity=".6"/>
    <path d="M58.5 64c2-2 9-2 11 0 1 3-2 6-5.5 6s-6.5-3-5.5-6Z" fill="#584a36"/>
    <path d="M61 64h3" stroke="#8b7a5a" stroke-width="1.3"/>
    <path d="M56 73c3 8 13 10 17-1-5 3-11 3-17 1Z" fill="#7c5b42"/>
    <path d="M60 76c2-1 5-1 7 0v3c-1 5-6 5-7 0Z" fill="#d69c87"/>
    <path d="M64 70v3c-4 3-7 3-10 0M64 73c4 3 8 2 11-1" fill="none" stroke="#806b4d" stroke-width="1.5"/>
    <path d="M45 80c10 7 28 7 39-1l-4 11-14 13-18-15Z" fill="url(#p03-scarf)" stroke="#5a7660" stroke-width="1.5"/>
    <path d="M52 85l14 13 10-10" fill="none" stroke="#b2c2a1" stroke-width="1.4"/>
    <path d="M80 82l12 2-5 7-9-4" fill="#729079" stroke="#5a7660" stroke-width="1.3"/>
    <circle cx="78" cy="85" r="3.6" fill="#9dae8d" stroke="#5a7660" stroke-width="1.2"/>
    <path d="M62 88h5l-2.5 4Z" fill="#e7d99f"/>
  </g>
</svg>
